<svg width="201" height="191" viewBox="0 0 201 191" fill="none" xmlns="http://www.w3.org/2000/svg">
<path d="M85.879 190.75C31.8039 190.75 0 149.229 0 97.5779C0 43.9052 34.9909 0.361359 101.786 0.361359C170.696 0.361359 194.02 44.9209 195.082 70.2384H145.256C144.194 56.0561 131.465 34.792 100.714 34.792C67.8571 34.792 46.6483 62.1316 46.6483 95.5466C46.6483 128.971 67.8571 156.32 100.723 156.32C130.412 156.32 143.132 134.04 148.434 111.76H100.723V93.5245H200.832V186.706H156.923V127.965C153.745 149.229 139.963 190.75 85.8883 190.75H85.879Z" fill="black"/>
</svg>
