<svg width="157" height="22" viewBox="0 0 157 22" fill="none" xmlns="http://www.w3.org/2000/svg">
<path d="M93.293 0.778015C90.05 0.778015 86.88 3.58302 86.516 7.63602V1.11202H81.859V20.783H86.573V11.262C86.573 8.59502 88.552 4.83202 93.293 4.83202V0.778015ZM142.778 17.634V4.15702H145.509C149.15 4.15702 152.108 6.33102 152.108 10.787C152.108 15.243 149.15 17.634 145.509 17.634H142.778ZM138.113 20.786H146.078C150.97 20.786 157 17.743 157 10.787C157 3.94001 150.97 1.11402 146.078 1.11402H138.113V20.786ZM120.224 11.006C120.224 7.41901 122.158 4.48502 125.344 4.48502C128.416 4.48502 130.123 7.41902 130.123 11.005C130.123 14.592 128.416 17.527 125.344 17.527C122.158 17.527 120.224 14.592 120.224 11.006ZM115.445 11.223C115.445 17.092 118.631 21.222 123.637 21.222C127.278 21.222 129.44 18.94 130.578 15.244V20.787H135.242V1.11602H130.578V6.33202C129.554 2.85502 127.392 0.790015 123.979 0.790015C118.859 0.790015 115.445 5.24601 115.445 11.223ZM9.216 21.222C3.413 21.222 0 16.766 0 11.223C0 5.46301 3.755 0.790015 10.923 0.790015C18.318 0.790015 20.821 5.57201 20.935 8.28901H15.588C15.474 6.76701 14.108 4.48502 10.808 4.48502C7.282 4.48502 5.006 7.41902 5.006 11.005C5.006 14.592 7.282 17.527 10.809 17.527C13.995 17.527 15.36 15.136 15.929 12.745H10.809V10.788H21.552V20.788H16.84V14.484C16.499 16.766 15.02 21.222 9.217 21.222H9.216ZM31.108 21.22C26.671 21.22 23.94 18.395 23.94 12.743V1.11402H28.719V12.744C28.719 15.678 30.198 17.091 32.701 17.091C37.593 17.091 39.414 11.331 39.414 7.30902V1.11402H44.192V20.786H39.528V13.504C38.618 17.525 36.114 21.221 31.108 21.221V21.22ZM72.741 0.778015C68.664 0.778015 66.092 4.54001 65.253 8.01801C65.109 3.35802 62.709 0.778015 58.87 0.778015C55.552 0.778015 52.474 3.60401 51.675 8.07502V1.11302H47.017V20.785H51.735V13.733C51.735 11.984 52.498 4.80902 57.247 4.80902C60.324 4.80902 60.645 7.46001 60.645 11.084V20.785H65.361V13.733C65.361 11.984 66.155 4.80902 70.905 4.80902C73.979 4.80902 74.297 7.46001 74.297 11.084V20.785H79.019V9.15001C79.041 3.56802 76.977 0.780015 72.741 0.780015V0.778015ZM103.415 0.778015C97.306 0.778015 93.168 5.35302 93.168 11C93.168 17.221 97.104 21.22 103.415 21.22C109.523 21.22 113.735 16.646 113.735 11C113.735 4.77802 109.722 0.778015 103.415 0.778015ZM103.415 17.738C99.859 17.738 97.555 14.863 97.555 11C97.555 7.13702 99.867 4.26002 103.415 4.26002C106.962 4.26002 109.181 7.13602 109.181 11C109.181 14.863 106.96 17.738 103.415 17.738Z" fill="#DDDDDD"/>
</svg>
